PathFileType	4	(X/Y/Z)	SUBJ63_2_walk_RCNL2025.trc
DataRate	CameraRate	NumFrames	NumMarkers	Units	OrigDataRate	OrigDataStartFrame	OrigNumFrames
100	100	9	25	mm	100	169	270
Frame#	Time	R_Shoulder			L_Shoulder			C7			J_Notch			R_Elbow			L_Elbow			R_Wrist			L_Wrist			R_Asis			L_Asis			Sacral			Thoracic			Sternum			R_Thigh_Lateral			R_Knee_Lateral			R_Shank_Lateral			R_Ankle_Lateral			R_Heel			R_Toe			L_Thigh_Lateral			L_Knee_Lateral			L_Shank_Lateral			L_Ankle_Lateral			L_Heel			L_Toe		
		X1	Y1	Z1	X2	Y2	Z2	X3	Y3	Z3	X4	Y4	Z4	X5	Y5	Z5	X6	Y6	Z6	X7	Y7	Z7	X8	Y8	Z8	X9	Y9	Z9	X10	Y10	Z10	X11	Y11	Z11	X12	Y12	Z12	X13	Y13	Z13	X14	Y14	Z14	X15	Y15	Z15	X16	Y16	Z16	X17	Y17	Z17	X18	Y18	Z18	X19	Y19	Z19	X20	Y20	Z20	X21	Y21	Z21	X22	Y22	Z22	X23	Y23	Z23	X24	Y24	Z24	X25	Y25	Z25
169	1.68000000	983.992188	1286.435547	208.695145	955.333191	1291.765015	-125.916931	895.705017	1351.136230	42.218884	1011.571228	1245.086304	34.667446	965.313354	1009.204651	322.685547	862.512207	1001.764160	-212.356613	1064.574646	802.758087	349.358200	910.293304	791.415619	-279.052010	1009.850159	837.784485	170.964935	1031.892212	838.251648	-78.221466	797.627991	847.823242	22.445635	807.133484	1171.041260	51.065163	1057.491089	1069.625000	32.477394	878.515686	505.351837	212.638992	862.679504	449.509003	163.179474	808.797668	272.771240	202.746033	774.552612	66.032158	120.859497	736.089417	69.492386	65.947426	887.444946	42.923256	131.580261	1095.263306	486.772980	-163.144226	1101.106689	461.012817	-96.420555	1097.058228	272.552795	-131.012558	1096.931152	76.596130	-54.640499	1053.079102	66.488960	2.743826	1211.096802	72.310867	-65.510498
170	1.69000000	999.736755	1284.478271	208.531021	969.129150	1288.648193	-125.983360	910.290344	1348.786377	42.360920	1026.252075	1242.639648	34.500980	983.558167	1008.064026	323.801941	871.941040	999.989197	-211.716965	1084.647339	802.492188	350.343994	914.272583	789.774994	-281.661255	1024.244873	835.573914	172.058884	1048.217163	835.159363	-77.547997	813.014954	845.742615	22.117765	821.656738	1168.729736	51.806213	1072.296509	1066.701782	32.475388	886.497375	505.314484	212.607513	869.937378	449.733307	163.071182	812.272827	274.090851	202.117554	775.319519	67.638863	120.075562	737.358887	71.816826	64.934410	887.740967	42.935349	131.675903	1109.225342	482.883148	-161.960480	1115.705078	458.178772	-95.098907	1124.885254	269.767365	-130.012573	1140.090088	73.990822	-53.549873	1096.571655	60.478279	3.728245	1254.604614	77.649147	-63.790699
171	1.70000000	1015.419983	1282.393799	208.214386	983.220215	1285.350098	-126.136452	924.864075	1346.278442	42.317490	1040.992676	1239.953369	34.313908	1001.655396	1006.868774	324.707062	881.703674	998.110718	-211.198380	1104.461182	802.166656	351.374664	918.782867	788.167084	-284.137909	1038.712158	833.422485	173.109375	1064.730835	831.968384	-77.005318	828.562988	843.533630	21.576424	836.204163	1166.269653	52.251858	1087.212036	1063.481689	32.581284	894.976074	505.297882	212.734695	877.755920	449.944763	163.136505	816.309509	275.507935	201.778641	776.096008	69.478668	119.653839	738.556641	74.441010	64.357170	887.981567	42.960499	131.849808	1122.792725	478.263214	-161.114136	1130.121704	455.032745	-94.088829	1151.863037	267.680725	-129.272781	1181.077148	72.809593	-52.820747	1137.719849	56.067326	4.112947	1295.592651	83.659424	-61.768375
172	1.71000000	1031.033081	1280.254639	207.746140	997.591980	1281.951416	-126.394753	939.442322	1343.672363	42.071770	1055.812378	1237.089966	34.082333	1019.536377	1005.655090	325.398590	891.857117	996.170593	-210.827179	1123.964417	801.822754	352.434692	923.866364	786.593201	-286.474335	1053.274292	831.370728	174.109161	1081.386841	828.846008	-76.522636	844.267456	841.221130	20.801733	850.807800	1163.716675	52.418274	1102.256836	1060.102783	32.795929	903.965027	505.330963	213.058395	886.145142	450.161682	163.418320	820.985840	277.010651	201.791748	776.901794	71.586212	119.660423	739.694702	77.420380	64.295059	888.201050	43.000965	132.125336	1136.304688	473.236420	-160.541168	1144.651733	451.796906	-93.335480	1177.938965	266.231293	-128.712692	1219.312012	72.726295	-52.362335	1175.941528	52.990063	4.010286	1333.588135	89.855904	-59.531532
173	1.72000000	1046.575195	1278.118774	207.140335	1012.222595	1278.533691	-126.772858	954.052856	1341.034790	41.618343	1070.727783	1234.123413	33.784622	1037.133667	1004.443970	325.885712	902.465088	994.208801	-210.632553	1143.104187	801.487244	353.507019	929.561859	785.053955	-288.665466	1067.961792	829.450500	175.040802	1098.139648	825.941833	-76.045914	860.127258	838.832092	19.796602	865.499084	1161.127075	52.326855	1117.447998	1056.704712	33.109756	913.483215	505.432465	213.589722	895.114136	450.394897	163.935471	826.324707	278.601105	202.183731	777.765015	73.996414	120.132378	740.804932	80.808601	64.792107	888.439026	43.060078	132.512833	1150.156738	468.225128	-160.164307	1159.572021	448.684540	-92.775650	1203.029541	265.299683	-128.259125	1254.285034	73.323891	-52.085026	1210.744751	50.916721	3.554648	1368.185059	95.684929	-57.217571
174	1.73000000	1062.052246	1276.031738	206.418488	1027.086304	1275.178101	-127.281990	968.732544	1338.433960	40.962208	1085.751831	1231.141602	33.403114	1054.388062	1003.245300	326.185608	913.591736	992.265259	-210.640961	1161.829346	801.173248	354.573105	935.908813	783.554291	-290.708252	1082.808838	827.681641	175.877670	1114.948853	823.373413	-75.547432	876.145691	836.403870	18.587009	880.308533	1158.554199	52.000652	1132.799194	1053.416260	33.500061	923.567871	505.604065	214.311829	904.680664	450.642151	164.682877	832.299377	280.288788	202.947678	778.726501	76.738831	121.071442	741.944092	84.651474	65.850769	888.737549	43.141861	133.008194	1164.759644	463.709625	-159.911865	1175.105957	445.871094	-92.349815	1227.012573	264.713165	-127.852119	1285.591553	74.147118	-51.903839	1241.756592	49.507729	2.901064	1399.080933	100.582039	-54.972542
175	1.74000000	1077.473145	1274.032959	205.602722	1042.157593	1271.964233	-127.931145	983.520264	1335.933350	40.116268	1100.894897	1228.243408	32.924648	1071.252930	1002.063599	326.319580	925.295959	990.378113	-210.869614	1180.092346	800.883209	355.615097	942.949890	782.106171	-292.602020	1097.849487	826.067444	176.587173	1131.784912	821.216553	-75.030754	892.329590	833.986816	17.218622	895.266418	1156.045410	51.460667	1148.320679	1050.346436	33.931782	934.269592	505.827057	215.185226	914.881042	450.887451	165.638077	838.860291	282.081696	204.049622	779.844055	79.836601	122.443146	743.196960	88.984734	67.429749	889.135376	43.246246	133.593674	1180.455933	460.132843	-159.726669	1191.393555	443.474579	-92.009155	1249.725952	264.261841	-127.448341	1312.958496	74.762405	-51.742397	1268.759644	48.471451	2.222608	1426.098877	104.036133	-52.914993
176	1.75000000	1092.844971	1272.160278	204.710464	1057.414795	1268.966064	-128.727646	998.448303	1333.583496	39.098171	1116.165161	1225.531006	32.339634	1087.700439	1000.905640	326.308289	937.626099	988.581909	-211.322754	1197.852661	800.613800	356.618362	950.730621	780.726898	-294.349762	1113.114380	824.593750	177.133423	1148.634033	819.502380	-74.530884	908.687744	831.641174	15.750390	910.400696	1153.638550	50.722965	1164.018555	1047.582886	34.359447	945.639648	506.064728	216.159805	925.769714	451.101105	166.770157	845.961060	283.984131	205.430893	781.193787	83.309921	124.184967	744.672913	93.837288	69.450478	889.658325	43.361160	134.240570	1197.428955	457.772003	-159.564255	1208.477783	441.549438	-91.717705	1270.989746	263.726593	-127.025002	1336.269409	74.815536	-51.538990	1291.702759	47.592548	1.679485	1449.197998	105.654816	-51.111954
177	1.76000000	1108.170044	1270.451660	203.752426	1072.841431	1266.245605	-129.675949	1013.534119	1331.418823	37.926136	1131.569702	1223.095825	31.640060	1103.727417	999.786987	326.168213	950.615906	986.905701	-211.991425	1215.079529	800.360138	357.571701	959.298889	779.435699	-295.959869	1128.629761	823.232422	177.480164	1165.500610	818.218811	-74.105865	925.226746	829.428833	14.245448	925.734314	1151.360718	49.797913	1179.893921	1045.193481	34.729122	957.721924	506.270355	217.189972	937.414795	451.241455	168.048584	853.589966	286.007477	207.016495	782.868469	87.179108	126.216087	746.508301	99.236450	71.805870	890.313721	43.460159	134.913116	1215.657227	456.645569	-159.389053	1226.311157	440.090179	-91.451286	1290.661987	262.917938	-126.578522	1355.585083	74.078651	-51.252739	1310.669067	46.719860	1.364493	1468.479370	105.215263	-49.572693
